<mxfile host="drawio-plugin" modified="2022-08-30T18:52:19.113Z" agent="5.0 (Macintosh; Intel Mac OS X 10_15_7) AppleWebKit/537.36 (KHTML, like Gecko) Chrome/98.0.4758.102 Safari/537.36" etag="SkeVrC0vRfXBpFyUbEfp" version="15.5.4" type="embed" pages="2"><diagram id="H_HlBK1jWJQJuRZDkBVP" name="Main Topology"><mxGraphModel dx="834" dy="1399" grid="0" gridSize="10" guides="1" tooltips="1" connect="1" arrows="1" fold="1" page="1" pageScale="1" pageWidth="1169" pageHeight="827" math="0" shadow="0"><root><mxCell id="Nw04OoW24CVMv9rph_wZ-0"/><mxCell id="Nw04OoW24CVMv9rph_wZ-1" parent="Nw04OoW24CVMv9rph_wZ-0"/><mxCell id="lpnhFc0bZMBd2z4nTFa3-0" value="" style="group;strokeColor=#3399FF;strokeWidth=3;" parent="Nw04OoW24CVMv9rph_wZ-1" vertex="1" connectable="0"><mxGeometry x="10" y="133" width="520" height="453" as="geometry"/></mxCell><mxCell id="kdkw1ZeA95kIWhR5t4dh-0" value="Region 1" style="shape=mxgraph.ibm.box;prType=region;fontStyle=0;verticalAlign=top;align=left;spacingLeft=32;spacingTop=4;fillColor=none;rounded=0;whiteSpace=wrap;html=1;strokeColor=#919191;strokeWidth=2;dashed=0;container=1;spacing=-4;collapsible=0;expand=0;recursiveResize=0;shadow=0;sketch=0;fontFamily=Comic Sans MS;fontSize=10;fontColor=#000000;" parent="lpnhFc0bZMBd2z4nTFa3-0" vertex="1"><mxGeometry width="520" height="453" as="geometry"/></mxCell><mxCell id="tsKot2nsRd7Dx_gNRrz8-18" value="&lt;font color=&quot;#660000&quot;&gt;LTG&lt;/font&gt;" style="aspect=fixed;perimeter=ellipsePerimeter;html=1;align=center;shadow=0;dashed=0;fontColor=#4277BB;labelBackgroundColor=#ffffff;fontSize=12;spacingTop=3;image;image=img/lib/ibm/vpc/TransitGateway.svg;fontFamily=Comic Sans MS;strokeColor=#FFB570;opacity=40;sketch=0;" parent="kdkw1ZeA95kIWhR5t4dh-0" vertex="1"><mxGeometry x="239.5" y="198" width="35" height="35" as="geometry"/></mxCell><mxCell id="keeYRfdEt6hkcI8QPOOI-1" style="edgeStyle=none;rounded=0;sketch=0;jumpStyle=arc;orthogonalLoop=1;jettySize=auto;html=1;entryX=1.01;entryY=0.423;entryDx=0;entryDy=0;entryPerimeter=0;shadow=0;fontFamily=Comic Sans MS;fontSize=10;fontColor=#000000;startArrow=classic;startFill=1;endArrow=classic;endFill=1;strokeColor=default;strokeWidth=2;" parent="lpnhFc0bZMBd2z4nTFa3-0" source="tsKot2nsRd7Dx_gNRrz8-18" target="H9ReaeVmWSsCKnK8_PxV-0" edge="1"><mxGeometry relative="1" as="geometry"/></mxCell><mxCell id="keeYRfdEt6hkcI8QPOOI-2" style="edgeStyle=none;rounded=0;sketch=0;jumpStyle=arc;orthogonalLoop=1;jettySize=auto;html=1;entryX=0.005;entryY=0.425;entryDx=0;entryDy=0;entryPerimeter=0;shadow=0;fontFamily=Comic Sans MS;fontSize=10;fontColor=#000000;startArrow=classic;startFill=1;endArrow=classic;endFill=1;strokeColor=default;strokeWidth=2;" parent="lpnhFc0bZMBd2z4nTFa3-0" source="tsKot2nsRd7Dx_gNRrz8-18" target="H9ReaeVmWSsCKnK8_PxV-14" edge="1"><mxGeometry relative="1" as="geometry"/></mxCell><mxCell id="H9ReaeVmWSsCKnK8_PxV-0" value="VPC 1" style="shape=mxgraph.ibm.box;prType=vpc;fontStyle=0;verticalAlign=top;align=left;spacingLeft=32;spacingTop=4;rounded=0;whiteSpace=wrap;html=1;strokeWidth=3;dashed=1;container=1;spacing=-4;collapsible=0;expand=0;recursiveResize=0;sketch=0;fontFamily=Comic Sans MS;fontSize=10;fillColor=none;strokeColor=#FFB570;perimeterSpacing=1;shadow=0;" parent="lpnhFc0bZMBd2z4nTFa3-0" vertex="1"><mxGeometry x="9" y="49" width="190" height="390" as="geometry"/></mxCell><mxCell id="H9ReaeVmWSsCKnK8_PxV-2" value="B1" style="aspect=fixed;perimeter=ellipsePerimeter;html=1;align=left;shadow=0;dashed=0;fontColor=#4277BB;labelBackgroundColor=#ffffff;fontSize=12;spacingTop=3;image;image=img/lib/ibm/vpc/Instance.svg;labelPosition=right;verticalLabelPosition=middle;verticalAlign=middle;" parent="H9ReaeVmWSsCKnK8_PxV-0" vertex="1"><mxGeometry x="11" y="204" width="40" height="40" as="geometry"/></mxCell><mxCell id="H9ReaeVmWSsCKnK8_PxV-3" value="B2" style="aspect=fixed;perimeter=ellipsePerimeter;html=1;align=left;shadow=0;dashed=0;fontColor=#FF0000;labelBackgroundColor=#ffffff;fontSize=12;spacingTop=3;image;image=img/lib/ibm/vpc/Instance.svg;imageBackground=none;imageBorder=none;opacity=50;labelPosition=right;verticalLabelPosition=middle;verticalAlign=middle;" parent="H9ReaeVmWSsCKnK8_PxV-0" vertex="1"><mxGeometry x="10" y="342" width="40" height="40" as="geometry"/></mxCell><mxCell id="H9ReaeVmWSsCKnK8_PxV-1" style="edgeStyle=orthogonalEdgeStyle;rounded=0;orthogonalLoop=1;jettySize=auto;html=1;fontFamily=Comic Sans MS;fontSize=10;fontColor=#FF0000;strokeWidth=2;shadow=0;jumpStyle=none;endArrow=none;endFill=0;dashed=1;fillColor=#d5e8d4;strokeColor=#82b366;" parent="H9ReaeVmWSsCKnK8_PxV-0" source="H9ReaeVmWSsCKnK8_PxV-2" target="H9ReaeVmWSsCKnK8_PxV-3" edge="1"><mxGeometry relative="1" as="geometry"/></mxCell><mxCell id="H9ReaeVmWSsCKnK8_PxV-5" value="B3&amp;nbsp;" style="aspect=fixed;perimeter=ellipsePerimeter;html=1;align=right;shadow=0;dashed=0;fontColor=#4277BB;labelBackgroundColor=#ffffff;fontSize=12;spacingTop=3;image;image=img/lib/ibm/vpc/Instance.svg;labelPosition=left;verticalLabelPosition=middle;verticalAlign=middle;" parent="H9ReaeVmWSsCKnK8_PxV-0" vertex="1"><mxGeometry x="144" y="204" width="40" height="40" as="geometry"/></mxCell><mxCell id="H9ReaeVmWSsCKnK8_PxV-6" value="&lt;font style=&quot;font-size: 10px&quot; face=&quot;Comic Sans MS&quot;&gt;SS&lt;br&gt;1/2&lt;/font&gt;" style="shape=dataStorage;whiteSpace=wrap;html=1;fixedSize=1;fontColor=#660000;opacity=50;" parent="H9ReaeVmWSsCKnK8_PxV-0" vertex="1"><mxGeometry x="32" y="285" width="50" height="39" as="geometry"/></mxCell><mxCell id="H9ReaeVmWSsCKnK8_PxV-7" value="&lt;font style=&quot;font-size: 10px&quot; face=&quot;Comic Sans MS&quot;&gt;SS&lt;br&gt;3/4&lt;/font&gt;" style="shape=dataStorage;whiteSpace=wrap;html=1;fixedSize=1;fontColor=#660000;opacity=50;" parent="H9ReaeVmWSsCKnK8_PxV-0" vertex="1"><mxGeometry x="113" y="285" width="50" height="39" as="geometry"/></mxCell><mxCell id="H9ReaeVmWSsCKnK8_PxV-8" style="edgeStyle=orthogonalEdgeStyle;rounded=0;jumpStyle=none;orthogonalLoop=1;jettySize=auto;html=1;entryX=0.5;entryY=0;entryDx=0;entryDy=0;shadow=0;fontFamily=Comic Sans MS;fontSize=10;fontColor=#3399FF;endArrow=classic;endFill=1;strokeWidth=2;startArrow=none;startFill=0;" parent="H9ReaeVmWSsCKnK8_PxV-0" source="H9ReaeVmWSsCKnK8_PxV-10" target="H9ReaeVmWSsCKnK8_PxV-5" edge="1"><mxGeometry relative="1" as="geometry"/></mxCell><mxCell id="H9ReaeVmWSsCKnK8_PxV-9" style="edgeStyle=orthogonalEdgeStyle;rounded=0;jumpStyle=none;orthogonalLoop=1;jettySize=auto;html=1;entryX=0.5;entryY=0;entryDx=0;entryDy=0;shadow=0;fontFamily=Comic Sans MS;fontSize=10;fontColor=#3399FF;startArrow=none;startFill=0;endArrow=classic;endFill=1;strokeWidth=2;" parent="H9ReaeVmWSsCKnK8_PxV-0" source="H9ReaeVmWSsCKnK8_PxV-10" target="H9ReaeVmWSsCKnK8_PxV-2" edge="1"><mxGeometry relative="1" as="geometry"/></mxCell><mxCell id="H9ReaeVmWSsCKnK8_PxV-10" value="&lt;font color=&quot;#ff0080&quot;&gt;R2&lt;/font&gt;" style="aspect=fixed;perimeter=ellipsePerimeter;html=1;align=center;shadow=0;dashed=0;fontColor=#B5739D;labelBackgroundColor=#ffffff;fontSize=12;spacingTop=3;image;image=img/lib/ibm/vpc/Router.svg;fontFamily=Comic Sans MS;opacity=60;imageBackground=none;imageBorder=none;" parent="H9ReaeVmWSsCKnK8_PxV-0" vertex="1"><mxGeometry x="79" y="110" width="39" height="39" as="geometry"/></mxCell><mxCell id="H9ReaeVmWSsCKnK8_PxV-11" value="B4&amp;nbsp;" style="aspect=fixed;perimeter=ellipsePerimeter;html=1;align=right;shadow=0;dashed=0;fontColor=#FF0000;labelBackgroundColor=#ffffff;fontSize=12;spacingTop=3;image;image=img/lib/ibm/vpc/Instance.svg;imageBackground=none;imageBorder=none;opacity=50;labelPosition=left;verticalLabelPosition=middle;verticalAlign=middle;" parent="H9ReaeVmWSsCKnK8_PxV-0" vertex="1"><mxGeometry x="144" y="342" width="40" height="40" as="geometry"/></mxCell><mxCell id="H9ReaeVmWSsCKnK8_PxV-4" style="edgeStyle=orthogonalEdgeStyle;rounded=0;jumpStyle=none;orthogonalLoop=1;jettySize=auto;html=1;entryX=0.5;entryY=0;entryDx=0;entryDy=0;shadow=0;fontFamily=Comic Sans MS;fontSize=10;fontColor=#FF0080;startArrow=none;startFill=0;endArrow=none;endFill=0;strokeWidth=2;dashed=1;fillColor=#d5e8d4;strokeColor=#82b366;" parent="H9ReaeVmWSsCKnK8_PxV-0" source="H9ReaeVmWSsCKnK8_PxV-5" target="H9ReaeVmWSsCKnK8_PxV-11" edge="1"><mxGeometry relative="1" as="geometry"/></mxCell><mxCell id="H9ReaeVmWSsCKnK8_PxV-12" value="" style="edgeStyle=orthogonalEdgeStyle;rounded=0;jumpStyle=none;orthogonalLoop=1;jettySize=auto;html=1;shadow=0;fontFamily=Comic Sans MS;fontSize=10;fontColor=#FF0080;startArrow=classic;startFill=1;endArrow=none;endFill=0;strokeWidth=2;" parent="H9ReaeVmWSsCKnK8_PxV-0" source="H9ReaeVmWSsCKnK8_PxV-13" target="H9ReaeVmWSsCKnK8_PxV-10" edge="1"><mxGeometry relative="1" as="geometry"/></mxCell><mxCell id="H9ReaeVmWSsCKnK8_PxV-13" value="R1 (hub)" style="aspect=fixed;perimeter=ellipsePerimeter;html=1;align=center;shadow=0;dashed=0;fontColor=#B5739D;labelBackgroundColor=#ffffff;fontSize=12;spacingTop=3;image;image=img/lib/ibm/vpc/Router.svg;fontFamily=Comic Sans MS;" parent="H9ReaeVmWSsCKnK8_PxV-0" vertex="1"><mxGeometry x="135" y="30" width="39" height="39" as="geometry"/></mxCell><mxCell id="H9ReaeVmWSsCKnK8_PxV-14" value="VPC 2" style="shape=mxgraph.ibm.box;prType=vpc;fontStyle=0;verticalAlign=top;align=left;spacingLeft=32;spacingTop=4;rounded=0;whiteSpace=wrap;html=1;strokeWidth=3;dashed=1;container=1;spacing=-4;collapsible=0;expand=0;recursiveResize=0;sketch=0;fontFamily=Comic Sans MS;fontSize=10;fillColor=none;strokeColor=#FFB570;perimeterSpacing=1;shadow=0;" parent="lpnhFc0bZMBd2z4nTFa3-0" vertex="1"><mxGeometry x="314" y="49" width="190" height="390" as="geometry"/></mxCell><mxCell id="H9ReaeVmWSsCKnK8_PxV-40" value="B5" style="aspect=fixed;perimeter=ellipsePerimeter;html=1;align=left;shadow=0;dashed=0;fontColor=#4277BB;labelBackgroundColor=#ffffff;fontSize=12;spacingTop=3;image;image=img/lib/ibm/vpc/Instance.svg;labelPosition=right;verticalLabelPosition=middle;verticalAlign=middle;" parent="H9ReaeVmWSsCKnK8_PxV-14" vertex="1"><mxGeometry x="9" y="204" width="40" height="40" as="geometry"/></mxCell><mxCell id="H9ReaeVmWSsCKnK8_PxV-41" value="B6" style="aspect=fixed;perimeter=ellipsePerimeter;html=1;align=left;shadow=0;dashed=0;fontColor=#FF0000;labelBackgroundColor=#ffffff;fontSize=12;spacingTop=3;image;image=img/lib/ibm/vpc/Instance.svg;imageBackground=none;imageBorder=none;opacity=50;labelPosition=right;verticalLabelPosition=middle;verticalAlign=middle;" parent="H9ReaeVmWSsCKnK8_PxV-14" vertex="1"><mxGeometry x="8" y="342" width="40" height="40" as="geometry"/></mxCell><mxCell id="H9ReaeVmWSsCKnK8_PxV-39" style="edgeStyle=orthogonalEdgeStyle;rounded=0;orthogonalLoop=1;jettySize=auto;html=1;fontFamily=Comic Sans MS;fontSize=10;fontColor=#FF0000;strokeWidth=2;shadow=0;jumpStyle=none;endArrow=none;endFill=0;dashed=1;fillColor=#d5e8d4;strokeColor=#82b366;" parent="H9ReaeVmWSsCKnK8_PxV-14" source="H9ReaeVmWSsCKnK8_PxV-40" target="H9ReaeVmWSsCKnK8_PxV-41" edge="1"><mxGeometry relative="1" as="geometry"/></mxCell><mxCell id="H9ReaeVmWSsCKnK8_PxV-43" value="B7&amp;nbsp;" style="aspect=fixed;perimeter=ellipsePerimeter;html=1;align=right;shadow=0;dashed=0;fontColor=#4277BB;labelBackgroundColor=#ffffff;fontSize=12;spacingTop=3;image;image=img/lib/ibm/vpc/Instance.svg;labelPosition=left;verticalLabelPosition=middle;verticalAlign=middle;" parent="H9ReaeVmWSsCKnK8_PxV-14" vertex="1"><mxGeometry x="142" y="204" width="40" height="40" as="geometry"/></mxCell><mxCell id="H9ReaeVmWSsCKnK8_PxV-44" value="&lt;font style=&quot;font-size: 10px&quot; face=&quot;Comic Sans MS&quot;&gt;SS&lt;br&gt;5/6&lt;/font&gt;" style="shape=dataStorage;whiteSpace=wrap;html=1;fixedSize=1;fontColor=#660000;opacity=50;" parent="H9ReaeVmWSsCKnK8_PxV-14" vertex="1"><mxGeometry x="30" y="275" width="50" height="39" as="geometry"/></mxCell><mxCell id="H9ReaeVmWSsCKnK8_PxV-45" value="&lt;font style=&quot;font-size: 10px&quot; face=&quot;Comic Sans MS&quot;&gt;SS&lt;br&gt;7/8&lt;/font&gt;" style="shape=dataStorage;whiteSpace=wrap;html=1;fixedSize=1;fontColor=#660000;opacity=50;" parent="H9ReaeVmWSsCKnK8_PxV-14" vertex="1"><mxGeometry x="111" y="275" width="50" height="39" as="geometry"/></mxCell><mxCell id="H9ReaeVmWSsCKnK8_PxV-46" style="edgeStyle=orthogonalEdgeStyle;rounded=0;jumpStyle=none;orthogonalLoop=1;jettySize=auto;html=1;entryX=0.5;entryY=0;entryDx=0;entryDy=0;shadow=0;fontFamily=Comic Sans MS;fontSize=10;fontColor=#3399FF;endArrow=classic;endFill=1;strokeWidth=2;startArrow=none;startFill=0;" parent="H9ReaeVmWSsCKnK8_PxV-14" source="H9ReaeVmWSsCKnK8_PxV-48" target="H9ReaeVmWSsCKnK8_PxV-43" edge="1"><mxGeometry relative="1" as="geometry"/></mxCell><mxCell id="H9ReaeVmWSsCKnK8_PxV-47" style="edgeStyle=orthogonalEdgeStyle;rounded=0;jumpStyle=none;orthogonalLoop=1;jettySize=auto;html=1;entryX=0.5;entryY=0;entryDx=0;entryDy=0;shadow=0;fontFamily=Comic Sans MS;fontSize=10;fontColor=#3399FF;startArrow=none;startFill=0;endArrow=classic;endFill=1;strokeWidth=2;" parent="H9ReaeVmWSsCKnK8_PxV-14" source="H9ReaeVmWSsCKnK8_PxV-48" target="H9ReaeVmWSsCKnK8_PxV-40" edge="1"><mxGeometry relative="1" as="geometry"/></mxCell><mxCell id="H9ReaeVmWSsCKnK8_PxV-48" value="&lt;font color=&quot;#ff0080&quot;&gt;R3&lt;/font&gt;" style="aspect=fixed;perimeter=ellipsePerimeter;html=1;align=center;shadow=0;dashed=0;fontColor=#B5739D;labelBackgroundColor=#ffffff;fontSize=12;spacingTop=3;image;image=img/lib/ibm/vpc/Router.svg;fontFamily=Comic Sans MS;opacity=60;imageBackground=none;imageBorder=none;" parent="H9ReaeVmWSsCKnK8_PxV-14" vertex="1"><mxGeometry x="77" y="110" width="39" height="39" as="geometry"/></mxCell><mxCell id="H9ReaeVmWSsCKnK8_PxV-49" value="B8&amp;nbsp;" style="aspect=fixed;perimeter=ellipsePerimeter;html=1;align=right;shadow=0;dashed=0;fontColor=#FF0000;labelBackgroundColor=#ffffff;fontSize=12;spacingTop=3;image;image=img/lib/ibm/vpc/Instance.svg;imageBackground=none;imageBorder=none;opacity=50;labelPosition=left;verticalLabelPosition=middle;verticalAlign=middle;" parent="H9ReaeVmWSsCKnK8_PxV-14" vertex="1"><mxGeometry x="142" y="342" width="40" height="40" as="geometry"/></mxCell><mxCell id="H9ReaeVmWSsCKnK8_PxV-42" style="edgeStyle=orthogonalEdgeStyle;rounded=0;jumpStyle=none;orthogonalLoop=1;jettySize=auto;html=1;entryX=0.5;entryY=0;entryDx=0;entryDy=0;shadow=0;fontFamily=Comic Sans MS;fontSize=10;fontColor=#FF0080;startArrow=none;startFill=0;endArrow=none;endFill=0;strokeWidth=2;dashed=1;fillColor=#d5e8d4;strokeColor=#82b366;" parent="H9ReaeVmWSsCKnK8_PxV-14" source="H9ReaeVmWSsCKnK8_PxV-43" target="H9ReaeVmWSsCKnK8_PxV-49" edge="1"><mxGeometry relative="1" as="geometry"/></mxCell><mxCell id="t7SSZxFEb3kSoGJwGPhb-0" style="edgeStyle=none;rounded=0;sketch=0;jumpStyle=arc;orthogonalLoop=1;jettySize=auto;html=1;shadow=0;fontFamily=Comic Sans MS;fontSize=10;fontColor=#000000;startArrow=none;startFill=0;endArrow=classic;endFill=1;strokeColor=default;strokeWidth=2;" parent="lpnhFc0bZMBd2z4nTFa3-0" source="H9ReaeVmWSsCKnK8_PxV-48" target="H9ReaeVmWSsCKnK8_PxV-13" edge="1"><mxGeometry relative="1" as="geometry"><Array as="points"><mxPoint x="411" y="99"/></Array></mxGeometry></mxCell><mxCell id="Y1kTBeBCbBxdlZEKmYf2-0" value="" style="group;strokeColor=#3399FF;strokeWidth=3;" parent="Nw04OoW24CVMv9rph_wZ-1" vertex="1" connectable="0"><mxGeometry x="640" y="132" width="520" height="453" as="geometry"/></mxCell><mxCell id="Y1kTBeBCbBxdlZEKmYf2-1" value="Region 2" style="shape=mxgraph.ibm.box;prType=region;fontStyle=0;verticalAlign=top;align=left;spacingLeft=32;spacingTop=4;fillColor=none;rounded=0;whiteSpace=wrap;html=1;strokeColor=#919191;strokeWidth=2;dashed=0;container=1;spacing=-4;collapsible=0;expand=0;recursiveResize=0;shadow=0;sketch=0;fontFamily=Comic Sans MS;fontSize=10;fontColor=#000000;" parent="Y1kTBeBCbBxdlZEKmYf2-0" vertex="1"><mxGeometry width="520" height="453" as="geometry"/></mxCell><mxCell id="Y1kTBeBCbBxdlZEKmYf2-2" value="&lt;font color=&quot;#660000&quot;&gt;LTG&lt;/font&gt;" style="aspect=fixed;perimeter=ellipsePerimeter;html=1;align=center;shadow=0;dashed=0;fontColor=#4277BB;labelBackgroundColor=#ffffff;fontSize=12;spacingTop=3;image;image=img/lib/ibm/vpc/TransitGateway.svg;fontFamily=Comic Sans MS;strokeColor=#FFB570;opacity=40;sketch=0;" parent="Y1kTBeBCbBxdlZEKmYf2-1" vertex="1"><mxGeometry x="242.5" y="198" width="35" height="35" as="geometry"/></mxCell><mxCell id="Y1kTBeBCbBxdlZEKmYf2-3" style="edgeStyle=none;rounded=0;sketch=0;jumpStyle=arc;orthogonalLoop=1;jettySize=auto;html=1;entryX=1.01;entryY=0.423;entryDx=0;entryDy=0;entryPerimeter=0;shadow=0;fontFamily=Comic Sans MS;fontSize=10;fontColor=#000000;startArrow=classic;startFill=1;endArrow=classic;endFill=1;strokeColor=default;strokeWidth=2;" parent="Y1kTBeBCbBxdlZEKmYf2-0" source="Y1kTBeBCbBxdlZEKmYf2-2" target="Y1kTBeBCbBxdlZEKmYf2-5" edge="1"><mxGeometry relative="1" as="geometry"/></mxCell><mxCell id="Y1kTBeBCbBxdlZEKmYf2-4" style="edgeStyle=none;rounded=0;sketch=0;jumpStyle=arc;orthogonalLoop=1;jettySize=auto;html=1;entryX=0.005;entryY=0.425;entryDx=0;entryDy=0;entryPerimeter=0;shadow=0;fontFamily=Comic Sans MS;fontSize=10;fontColor=#000000;startArrow=classic;startFill=1;endArrow=classic;endFill=1;strokeColor=default;strokeWidth=2;" parent="Y1kTBeBCbBxdlZEKmYf2-0" source="Y1kTBeBCbBxdlZEKmYf2-2" target="Y1kTBeBCbBxdlZEKmYf2-19" edge="1"><mxGeometry relative="1" as="geometry"/></mxCell><mxCell id="Y1kTBeBCbBxdlZEKmYf2-5" value="VPC 1" style="shape=mxgraph.ibm.box;prType=vpc;fontStyle=0;verticalAlign=top;align=left;spacingLeft=32;spacingTop=4;rounded=0;whiteSpace=wrap;html=1;strokeWidth=3;dashed=1;container=1;spacing=-4;collapsible=0;expand=0;recursiveResize=0;sketch=0;fontFamily=Comic Sans MS;fontSize=10;fillColor=none;strokeColor=#FFB570;perimeterSpacing=1;shadow=0;" parent="Y1kTBeBCbBxdlZEKmYf2-0" vertex="1"><mxGeometry x="9" y="49" width="190" height="390" as="geometry"/></mxCell><mxCell id="Y1kTBeBCbBxdlZEKmYf2-6" value="B1" style="aspect=fixed;perimeter=ellipsePerimeter;html=1;align=left;shadow=0;dashed=0;fontColor=#4277BB;labelBackgroundColor=#ffffff;fontSize=12;spacingTop=3;image;image=img/lib/ibm/vpc/Instance.svg;labelPosition=right;verticalLabelPosition=middle;verticalAlign=middle;" parent="Y1kTBeBCbBxdlZEKmYf2-5" vertex="1"><mxGeometry x="11" y="204" width="40" height="40" as="geometry"/></mxCell><mxCell id="Y1kTBeBCbBxdlZEKmYf2-7" value="B2" style="aspect=fixed;perimeter=ellipsePerimeter;html=1;align=left;shadow=0;dashed=0;fontColor=#FF0000;labelBackgroundColor=#ffffff;fontSize=12;spacingTop=3;image;image=img/lib/ibm/vpc/Instance.svg;imageBackground=none;imageBorder=none;opacity=50;labelPosition=right;verticalLabelPosition=middle;verticalAlign=middle;" parent="Y1kTBeBCbBxdlZEKmYf2-5" vertex="1"><mxGeometry x="10" y="342" width="40" height="40" as="geometry"/></mxCell><mxCell id="Y1kTBeBCbBxdlZEKmYf2-8" style="edgeStyle=orthogonalEdgeStyle;rounded=0;orthogonalLoop=1;jettySize=auto;html=1;fontFamily=Comic Sans MS;fontSize=10;fontColor=#FF0000;strokeWidth=2;shadow=0;jumpStyle=none;endArrow=none;endFill=0;dashed=1;fillColor=#d5e8d4;strokeColor=#82b366;" parent="Y1kTBeBCbBxdlZEKmYf2-5" source="Y1kTBeBCbBxdlZEKmYf2-6" target="Y1kTBeBCbBxdlZEKmYf2-7" edge="1"><mxGeometry relative="1" as="geometry"/></mxCell><mxCell id="Y1kTBeBCbBxdlZEKmYf2-9" value="B3&amp;nbsp;" style="aspect=fixed;perimeter=ellipsePerimeter;html=1;align=right;shadow=0;dashed=0;fontColor=#4277BB;labelBackgroundColor=#ffffff;fontSize=12;spacingTop=3;image;image=img/lib/ibm/vpc/Instance.svg;labelPosition=left;verticalLabelPosition=middle;verticalAlign=middle;" parent="Y1kTBeBCbBxdlZEKmYf2-5" vertex="1"><mxGeometry x="144" y="204" width="40" height="40" as="geometry"/></mxCell><mxCell id="Y1kTBeBCbBxdlZEKmYf2-10" value="&lt;font style=&quot;font-size: 10px&quot; face=&quot;Comic Sans MS&quot;&gt;SS&lt;br&gt;1/2&lt;/font&gt;" style="shape=dataStorage;whiteSpace=wrap;html=1;fixedSize=1;fontColor=#660000;opacity=50;" parent="Y1kTBeBCbBxdlZEKmYf2-5" vertex="1"><mxGeometry x="32" y="285" width="50" height="39" as="geometry"/></mxCell><mxCell id="Y1kTBeBCbBxdlZEKmYf2-11" value="&lt;font style=&quot;font-size: 10px&quot; face=&quot;Comic Sans MS&quot;&gt;SS&lt;br&gt;3/4&lt;/font&gt;" style="shape=dataStorage;whiteSpace=wrap;html=1;fixedSize=1;fontColor=#660000;opacity=50;" parent="Y1kTBeBCbBxdlZEKmYf2-5" vertex="1"><mxGeometry x="113" y="285" width="50" height="39" as="geometry"/></mxCell><mxCell id="Y1kTBeBCbBxdlZEKmYf2-12" style="edgeStyle=orthogonalEdgeStyle;rounded=0;jumpStyle=none;orthogonalLoop=1;jettySize=auto;html=1;entryX=0.5;entryY=0;entryDx=0;entryDy=0;shadow=0;fontFamily=Comic Sans MS;fontSize=10;fontColor=#3399FF;endArrow=classic;endFill=1;strokeWidth=2;startArrow=none;startFill=0;" parent="Y1kTBeBCbBxdlZEKmYf2-5" source="Y1kTBeBCbBxdlZEKmYf2-14" target="Y1kTBeBCbBxdlZEKmYf2-9" edge="1"><mxGeometry relative="1" as="geometry"/></mxCell><mxCell id="Y1kTBeBCbBxdlZEKmYf2-13" style="edgeStyle=orthogonalEdgeStyle;rounded=0;jumpStyle=none;orthogonalLoop=1;jettySize=auto;html=1;entryX=0.5;entryY=0;entryDx=0;entryDy=0;shadow=0;fontFamily=Comic Sans MS;fontSize=10;fontColor=#3399FF;startArrow=none;startFill=0;endArrow=classic;endFill=1;strokeWidth=2;" parent="Y1kTBeBCbBxdlZEKmYf2-5" source="Y1kTBeBCbBxdlZEKmYf2-14" target="Y1kTBeBCbBxdlZEKmYf2-6" edge="1"><mxGeometry relative="1" as="geometry"/></mxCell><mxCell id="Y1kTBeBCbBxdlZEKmYf2-14" value="&lt;font color=&quot;#ff0080&quot;&gt;R2&lt;/font&gt;" style="aspect=fixed;perimeter=ellipsePerimeter;html=1;align=center;shadow=0;dashed=0;fontColor=#B5739D;labelBackgroundColor=#ffffff;fontSize=12;spacingTop=3;image;image=img/lib/ibm/vpc/Router.svg;fontFamily=Comic Sans MS;opacity=60;imageBackground=none;imageBorder=none;" parent="Y1kTBeBCbBxdlZEKmYf2-5" vertex="1"><mxGeometry x="79" y="110" width="39" height="39" as="geometry"/></mxCell><mxCell id="Y1kTBeBCbBxdlZEKmYf2-15" value="B4&amp;nbsp;" style="aspect=fixed;perimeter=ellipsePerimeter;html=1;align=right;shadow=0;dashed=0;fontColor=#FF0000;labelBackgroundColor=#ffffff;fontSize=12;spacingTop=3;image;image=img/lib/ibm/vpc/Instance.svg;imageBackground=none;imageBorder=none;opacity=50;labelPosition=left;verticalLabelPosition=middle;verticalAlign=middle;" parent="Y1kTBeBCbBxdlZEKmYf2-5" vertex="1"><mxGeometry x="144" y="342" width="40" height="40" as="geometry"/></mxCell><mxCell id="Y1kTBeBCbBxdlZEKmYf2-16" style="edgeStyle=orthogonalEdgeStyle;rounded=0;jumpStyle=none;orthogonalLoop=1;jettySize=auto;html=1;entryX=0.5;entryY=0;entryDx=0;entryDy=0;shadow=0;fontFamily=Comic Sans MS;fontSize=10;fontColor=#FF0080;startArrow=none;startFill=0;endArrow=none;endFill=0;strokeWidth=2;dashed=1;fillColor=#d5e8d4;strokeColor=#82b366;" parent="Y1kTBeBCbBxdlZEKmYf2-5" source="Y1kTBeBCbBxdlZEKmYf2-9" target="Y1kTBeBCbBxdlZEKmYf2-15" edge="1"><mxGeometry relative="1" as="geometry"/></mxCell><mxCell id="Y1kTBeBCbBxdlZEKmYf2-17" value="" style="edgeStyle=orthogonalEdgeStyle;rounded=0;jumpStyle=none;orthogonalLoop=1;jettySize=auto;html=1;shadow=0;fontFamily=Comic Sans MS;fontSize=10;fontColor=#FF0080;startArrow=classic;startFill=1;endArrow=none;endFill=0;strokeWidth=2;" parent="Y1kTBeBCbBxdlZEKmYf2-5" source="Y1kTBeBCbBxdlZEKmYf2-18" target="Y1kTBeBCbBxdlZEKmYf2-14" edge="1"><mxGeometry relative="1" as="geometry"/></mxCell><mxCell id="Y1kTBeBCbBxdlZEKmYf2-18" value="R1 (hub)" style="aspect=fixed;perimeter=ellipsePerimeter;html=1;align=center;shadow=0;dashed=0;fontColor=#B5739D;labelBackgroundColor=#ffffff;fontSize=12;spacingTop=3;image;image=img/lib/ibm/vpc/Router.svg;fontFamily=Comic Sans MS;" parent="Y1kTBeBCbBxdlZEKmYf2-5" vertex="1"><mxGeometry x="135" y="30" width="39" height="39" as="geometry"/></mxCell><mxCell id="Y1kTBeBCbBxdlZEKmYf2-19" value="VPC 2" style="shape=mxgraph.ibm.box;prType=vpc;fontStyle=0;verticalAlign=top;align=left;spacingLeft=32;spacingTop=4;rounded=0;whiteSpace=wrap;html=1;strokeWidth=3;dashed=1;container=1;spacing=-4;collapsible=0;expand=0;recursiveResize=0;sketch=0;fontFamily=Comic Sans MS;fontSize=10;fillColor=none;strokeColor=#FFB570;perimeterSpacing=1;shadow=0;" parent="Y1kTBeBCbBxdlZEKmYf2-0" vertex="1"><mxGeometry x="319" y="49" width="190" height="390" as="geometry"/></mxCell><mxCell id="Y1kTBeBCbBxdlZEKmYf2-20" value="B5" style="aspect=fixed;perimeter=ellipsePerimeter;html=1;align=left;shadow=0;dashed=0;fontColor=#4277BB;labelBackgroundColor=#ffffff;fontSize=12;spacingTop=3;image;image=img/lib/ibm/vpc/Instance.svg;labelPosition=right;verticalLabelPosition=middle;verticalAlign=middle;" parent="Y1kTBeBCbBxdlZEKmYf2-19" vertex="1"><mxGeometry x="9" y="204" width="40" height="40" as="geometry"/></mxCell><mxCell id="Y1kTBeBCbBxdlZEKmYf2-21" value="B6" style="aspect=fixed;perimeter=ellipsePerimeter;html=1;align=left;shadow=0;dashed=0;fontColor=#FF0000;labelBackgroundColor=#ffffff;fontSize=12;spacingTop=3;image;image=img/lib/ibm/vpc/Instance.svg;imageBackground=none;imageBorder=none;opacity=50;labelPosition=right;verticalLabelPosition=middle;verticalAlign=middle;" parent="Y1kTBeBCbBxdlZEKmYf2-19" vertex="1"><mxGeometry x="8" y="342" width="40" height="40" as="geometry"/></mxCell><mxCell id="Y1kTBeBCbBxdlZEKmYf2-22" style="edgeStyle=orthogonalEdgeStyle;rounded=0;orthogonalLoop=1;jettySize=auto;html=1;fontFamily=Comic Sans MS;fontSize=10;fontColor=#FF0000;strokeWidth=2;shadow=0;jumpStyle=none;endArrow=none;endFill=0;dashed=1;fillColor=#d5e8d4;strokeColor=#82b366;" parent="Y1kTBeBCbBxdlZEKmYf2-19" source="Y1kTBeBCbBxdlZEKmYf2-20" target="Y1kTBeBCbBxdlZEKmYf2-21" edge="1"><mxGeometry relative="1" as="geometry"/></mxCell><mxCell id="Y1kTBeBCbBxdlZEKmYf2-23" value="B7&amp;nbsp;" style="aspect=fixed;perimeter=ellipsePerimeter;html=1;align=right;shadow=0;dashed=0;fontColor=#4277BB;labelBackgroundColor=#ffffff;fontSize=12;spacingTop=3;image;image=img/lib/ibm/vpc/Instance.svg;labelPosition=left;verticalLabelPosition=middle;verticalAlign=middle;" parent="Y1kTBeBCbBxdlZEKmYf2-19" vertex="1"><mxGeometry x="142" y="204" width="40" height="40" as="geometry"/></mxCell><mxCell id="Y1kTBeBCbBxdlZEKmYf2-24" value="&lt;font style=&quot;font-size: 10px&quot; face=&quot;Comic Sans MS&quot;&gt;SS&lt;br&gt;5/6&lt;/font&gt;" style="shape=dataStorage;whiteSpace=wrap;html=1;fixedSize=1;fontColor=#660000;opacity=50;" parent="Y1kTBeBCbBxdlZEKmYf2-19" vertex="1"><mxGeometry x="30" y="275" width="50" height="39" as="geometry"/></mxCell><mxCell id="Y1kTBeBCbBxdlZEKmYf2-25" value="&lt;font style=&quot;font-size: 10px&quot; face=&quot;Comic Sans MS&quot;&gt;SS&lt;br&gt;7/8&lt;/font&gt;" style="shape=dataStorage;whiteSpace=wrap;html=1;fixedSize=1;fontColor=#660000;opacity=50;" parent="Y1kTBeBCbBxdlZEKmYf2-19" vertex="1"><mxGeometry x="111" y="275" width="50" height="39" as="geometry"/></mxCell><mxCell id="Y1kTBeBCbBxdlZEKmYf2-26" style="edgeStyle=orthogonalEdgeStyle;rounded=0;jumpStyle=none;orthogonalLoop=1;jettySize=auto;html=1;entryX=0.5;entryY=0;entryDx=0;entryDy=0;shadow=0;fontFamily=Comic Sans MS;fontSize=10;fontColor=#3399FF;endArrow=classic;endFill=1;strokeWidth=2;startArrow=none;startFill=0;" parent="Y1kTBeBCbBxdlZEKmYf2-19" source="Y1kTBeBCbBxdlZEKmYf2-28" target="Y1kTBeBCbBxdlZEKmYf2-23" edge="1"><mxGeometry relative="1" as="geometry"/></mxCell><mxCell id="Y1kTBeBCbBxdlZEKmYf2-27" style="edgeStyle=orthogonalEdgeStyle;rounded=0;jumpStyle=none;orthogonalLoop=1;jettySize=auto;html=1;entryX=0.5;entryY=0;entryDx=0;entryDy=0;shadow=0;fontFamily=Comic Sans MS;fontSize=10;fontColor=#3399FF;startArrow=none;startFill=0;endArrow=classic;endFill=1;strokeWidth=2;" parent="Y1kTBeBCbBxdlZEKmYf2-19" source="Y1kTBeBCbBxdlZEKmYf2-28" target="Y1kTBeBCbBxdlZEKmYf2-20" edge="1"><mxGeometry relative="1" as="geometry"/></mxCell><mxCell id="Y1kTBeBCbBxdlZEKmYf2-28" value="&lt;font color=&quot;#ff0080&quot;&gt;R3&lt;/font&gt;" style="aspect=fixed;perimeter=ellipsePerimeter;html=1;align=center;shadow=0;dashed=0;fontColor=#B5739D;labelBackgroundColor=#ffffff;fontSize=12;spacingTop=3;image;image=img/lib/ibm/vpc/Router.svg;fontFamily=Comic Sans MS;opacity=60;imageBackground=none;imageBorder=none;" parent="Y1kTBeBCbBxdlZEKmYf2-19" vertex="1"><mxGeometry x="77" y="110" width="39" height="39" as="geometry"/></mxCell><mxCell id="Y1kTBeBCbBxdlZEKmYf2-29" value="B8&amp;nbsp;" style="aspect=fixed;perimeter=ellipsePerimeter;html=1;align=right;shadow=0;dashed=0;fontColor=#FF0000;labelBackgroundColor=#ffffff;fontSize=12;spacingTop=3;image;image=img/lib/ibm/vpc/Instance.svg;imageBackground=none;imageBorder=none;opacity=50;labelPosition=left;verticalLabelPosition=middle;verticalAlign=middle;" parent="Y1kTBeBCbBxdlZEKmYf2-19" vertex="1"><mxGeometry x="142" y="342" width="40" height="40" as="geometry"/></mxCell><mxCell id="Y1kTBeBCbBxdlZEKmYf2-30" style="edgeStyle=orthogonalEdgeStyle;rounded=0;jumpStyle=none;orthogonalLoop=1;jettySize=auto;html=1;entryX=0.5;entryY=0;entryDx=0;entryDy=0;shadow=0;fontFamily=Comic Sans MS;fontSize=10;fontColor=#FF0080;startArrow=none;startFill=0;endArrow=none;endFill=0;strokeWidth=2;dashed=1;fillColor=#d5e8d4;strokeColor=#82b366;" parent="Y1kTBeBCbBxdlZEKmYf2-19" source="Y1kTBeBCbBxdlZEKmYf2-23" target="Y1kTBeBCbBxdlZEKmYf2-29" edge="1"><mxGeometry relative="1" as="geometry"/></mxCell><mxCell id="Y1kTBeBCbBxdlZEKmYf2-31" style="edgeStyle=none;rounded=0;sketch=0;jumpStyle=arc;orthogonalLoop=1;jettySize=auto;html=1;shadow=0;fontFamily=Comic Sans MS;fontSize=10;fontColor=#000000;startArrow=none;startFill=0;endArrow=classic;endFill=1;strokeColor=default;strokeWidth=2;" parent="Y1kTBeBCbBxdlZEKmYf2-0" source="Y1kTBeBCbBxdlZEKmYf2-28" target="Y1kTBeBCbBxdlZEKmYf2-18" edge="1"><mxGeometry relative="1" as="geometry"><Array as="points"><mxPoint x="416" y="99"/></Array></mxGeometry></mxCell><mxCell id="enWU4fBCcASMV3ixBioa-1" style="edgeStyle=none;rounded=0;sketch=0;jumpStyle=arc;orthogonalLoop=1;jettySize=auto;html=1;entryX=0.002;entryY=0.247;entryDx=0;entryDy=0;entryPerimeter=0;shadow=0;fontFamily=Comic Sans MS;fontSize=10;fontColor=#000000;startArrow=classic;startFill=1;endArrow=classic;endFill=1;strokeColor=default;strokeWidth=2;" parent="Nw04OoW24CVMv9rph_wZ-1" source="enWU4fBCcASMV3ixBioa-0" target="Y1kTBeBCbBxdlZEKmYf2-1" edge="1"><mxGeometry relative="1" as="geometry"/></mxCell><mxCell id="enWU4fBCcASMV3ixBioa-2" style="edgeStyle=none;rounded=0;sketch=0;jumpStyle=arc;orthogonalLoop=1;jettySize=auto;html=1;entryX=1;entryY=0.258;entryDx=0;entryDy=0;entryPerimeter=0;shadow=0;fontFamily=Comic Sans MS;fontSize=10;fontColor=#000000;startArrow=classic;startFill=1;endArrow=classic;endFill=1;strokeColor=default;strokeWidth=2;" parent="Nw04OoW24CVMv9rph_wZ-1" source="enWU4fBCcASMV3ixBioa-0" target="kdkw1ZeA95kIWhR5t4dh-0" edge="1"><mxGeometry relative="1" as="geometry"/></mxCell><mxCell id="enWU4fBCcASMV3ixBioa-0" value="&lt;font color=&quot;#9933ff&quot;&gt;GTG&lt;/font&gt;" style="aspect=fixed;perimeter=ellipsePerimeter;html=1;align=center;shadow=0;dashed=0;fontColor=#4277BB;labelBackgroundColor=#ffffff;fontSize=12;spacingTop=3;image;image=img/lib/ibm/vpc/TransitGateway.svg;fontFamily=Comic Sans MS;strokeColor=#FFB570;" parent="Nw04OoW24CVMv9rph_wZ-1" vertex="1"><mxGeometry x="559" y="300" width="60" height="60" as="geometry"/></mxCell><mxCell id="UefpB5Rl9RJ3I6CoGZEZ-0" value="LEGEND" style="text;html=1;align=left;verticalAlign=middle;fontColor=#4277BB;shadow=0;dashed=0;strokeColor=none;fillColor=none;labelBackgroundColor=none;fontStyle=1;fontSize=14;spacingLeft=0;" parent="Nw04OoW24CVMv9rph_wZ-1" vertex="1"><mxGeometry x="20" y="650" width="150" height="20" as="geometry"/></mxCell><mxCell id="UefpB5Rl9RJ3I6CoGZEZ-1" value="AMQ Broker - Live" style="aspect=fixed;perimeter=ellipsePerimeter;html=1;align=left;shadow=0;dashed=0;fontColor=#4277BB;labelBackgroundColor=#ffffff;fontSize=12;spacingTop=3;image;image=img/lib/ibm/vpc/Instance.svg;fontFamily=Comic Sans MS;labelPosition=right;verticalLabelPosition=middle;verticalAlign=middle;" parent="Nw04OoW24CVMv9rph_wZ-1" vertex="1"><mxGeometry x="20" y="680" width="30" height="30" as="geometry"/></mxCell><mxCell id="UefpB5Rl9RJ3I6CoGZEZ-2" value="AMQ Broker - Backup" style="aspect=fixed;perimeter=ellipsePerimeter;html=1;align=left;shadow=0;dashed=0;fontColor=#FF0000;labelBackgroundColor=#ffffff;fontSize=12;spacingTop=3;image;image=img/lib/ibm/vpc/Instance.svg;imageBackground=none;imageBorder=none;opacity=50;labelPosition=right;verticalLabelPosition=middle;verticalAlign=middle;" parent="Nw04OoW24CVMv9rph_wZ-1" vertex="1"><mxGeometry x="20" y="720" width="30" height="30" as="geometry"/></mxCell><mxCell id="UefpB5Rl9RJ3I6CoGZEZ-3" value="&lt;font style=&quot;font-size: 10px&quot; face=&quot;Comic Sans MS&quot;&gt;Shared Storage&lt;br&gt;&lt;/font&gt;" style="shape=dataStorage;whiteSpace=wrap;html=1;fixedSize=1;fontColor=#660000;opacity=50;labelPosition=right;verticalLabelPosition=middle;align=left;verticalAlign=middle;" parent="Nw04OoW24CVMv9rph_wZ-1" vertex="1"><mxGeometry x="870" y="685.5" width="50" height="34.5" as="geometry"/></mxCell><mxCell id="UefpB5Rl9RJ3I6CoGZEZ-4" value="AMQ Router - Hub" style="aspect=fixed;perimeter=ellipsePerimeter;html=1;align=left;shadow=0;dashed=0;fontColor=#B5739D;labelBackgroundColor=#ffffff;fontSize=12;spacingTop=3;image;image=img/lib/ibm/vpc/Router.svg;fontFamily=Comic Sans MS;labelPosition=right;verticalLabelPosition=middle;verticalAlign=middle;" parent="Nw04OoW24CVMv9rph_wZ-1" vertex="1"><mxGeometry x="256" y="680" width="30" height="30" as="geometry"/></mxCell><mxCell id="UefpB5Rl9RJ3I6CoGZEZ-5" value="&lt;font color=&quot;#ff0080&quot;&gt;AMQ Router - Spoke&lt;/font&gt;" style="aspect=fixed;perimeter=ellipsePerimeter;html=1;align=left;shadow=0;dashed=0;fontColor=#B5739D;labelBackgroundColor=#ffffff;fontSize=12;spacingTop=3;image;image=img/lib/ibm/vpc/Router.svg;fontFamily=Comic Sans MS;labelPosition=right;verticalLabelPosition=middle;verticalAlign=middle;opacity=60;" parent="Nw04OoW24CVMv9rph_wZ-1" vertex="1"><mxGeometry x="256" y="720" width="30" height="30" as="geometry"/></mxCell><mxCell id="UefpB5Rl9RJ3I6CoGZEZ-6" value="&lt;font color=&quot;#660000&quot;&gt;LTG - Local Transit Gateway&lt;/font&gt;" style="aspect=fixed;perimeter=ellipsePerimeter;html=1;align=left;shadow=0;dashed=0;fontColor=#4277BB;labelBackgroundColor=#ffffff;fontSize=12;spacingTop=3;image;image=img/lib/ibm/vpc/TransitGateway.svg;fontFamily=Comic Sans MS;strokeColor=#FFB570;opacity=40;labelPosition=right;verticalLabelPosition=middle;verticalAlign=middle;perimeterSpacing=0;" parent="Nw04OoW24CVMv9rph_wZ-1" vertex="1"><mxGeometry x="521" y="680" width="28" height="28" as="geometry"/></mxCell><mxCell id="UefpB5Rl9RJ3I6CoGZEZ-7" value="&lt;font color=&quot;#9933ff&quot;&gt;GTG - Global Transit Gateway&lt;/font&gt;" style="aspect=fixed;perimeter=ellipsePerimeter;html=1;align=left;shadow=0;dashed=0;fontColor=#4277BB;labelBackgroundColor=#ffffff;fontSize=12;spacingTop=3;image;image=img/lib/ibm/vpc/TransitGateway.svg;fontFamily=Comic Sans MS;strokeColor=#FFB570;labelPosition=right;verticalLabelPosition=middle;verticalAlign=middle;" parent="Nw04OoW24CVMv9rph_wZ-1" vertex="1"><mxGeometry x="521" y="720" width="27" height="27" as="geometry"/></mxCell><mxCell id="t0Q9PrfitlHp-mEHyFjq-3" style="edgeStyle=none;rounded=0;sketch=0;jumpStyle=arc;orthogonalLoop=1;jettySize=auto;html=1;shadow=0;fontFamily=Comic Sans MS;fontSize=10;fontColor=#000000;startArrow=classic;startFill=1;endArrow=none;endFill=0;strokeColor=default;strokeWidth=2;" parent="Nw04OoW24CVMv9rph_wZ-1" source="H9ReaeVmWSsCKnK8_PxV-13" edge="1"><mxGeometry relative="1" as="geometry"><mxPoint x="600" y="120" as="targetPoint"/><mxPoint x="171.28091270563095" y="230.00123080116464" as="sourcePoint"/><Array as="points"><mxPoint x="174" y="160"/><mxPoint x="600" y="160"/></Array></mxGeometry></mxCell><mxCell id="t0Q9PrfitlHp-mEHyFjq-4" style="edgeStyle=none;rounded=0;sketch=0;jumpStyle=arc;orthogonalLoop=1;jettySize=auto;html=1;shadow=0;fontFamily=Comic Sans MS;fontSize=10;fontColor=#000000;startArrow=classic;startFill=1;endArrow=none;endFill=0;strokeColor=default;strokeWidth=2;dashed=1;" parent="Nw04OoW24CVMv9rph_wZ-1" source="Y1kTBeBCbBxdlZEKmYf2-18" edge="1"><mxGeometry relative="1" as="geometry"><mxPoint x="600" y="120" as="targetPoint"/><mxPoint x="837.5" y="230" as="sourcePoint"/><Array as="points"><mxPoint x="804" y="160"/><mxPoint x="600" y="160"/></Array></mxGeometry></mxCell><mxCell id="fGzGG8OEJZXeA67kMc2O-4" style="edgeStyle=none;rounded=0;sketch=0;jumpStyle=arc;orthogonalLoop=1;jettySize=auto;html=1;shadow=0;fontFamily=Comic Sans MS;fontSize=12;fontColor=#000000;startArrow=none;startFill=0;endArrow=none;endFill=0;strokeColor=default;strokeWidth=2;exitX=0.446;exitY=1.033;exitDx=0;exitDy=0;exitPerimeter=0;entryX=0.5;entryY=1;entryDx=0;entryDy=0;" parent="Nw04OoW24CVMv9rph_wZ-1" source="fGzGG8OEJZXeA67kMc2O-0" target="fGzGG8OEJZXeA67kMc2O-1" edge="1"><mxGeometry relative="1" as="geometry"><Array as="points"><mxPoint x="458" y="120"/><mxPoint x="560" y="120"/><mxPoint x="704" y="120"/></Array></mxGeometry></mxCell><mxCell id="fGzGG8OEJZXeA67kMc2O-0" value="&lt;font style=&quot;font-size: 12px&quot;&gt;Publisher&lt;/font&gt;" style="shape=process;whiteSpace=wrap;html=1;backgroundOutline=1;shadow=0;sketch=0;fontFamily=Comic Sans MS;fontSize=10;fontColor=#000000;strokeColor=#660000;strokeWidth=3;fillColor=none;" parent="Nw04OoW24CVMv9rph_wZ-1" vertex="1"><mxGeometry x="400" y="30" width="130" height="60" as="geometry"/></mxCell><mxCell id="fGzGG8OEJZXeA67kMc2O-1" value="&lt;font style=&quot;font-size: 12px&quot;&gt;Consumer&lt;/font&gt;" style="shape=process;whiteSpace=wrap;html=1;backgroundOutline=1;shadow=0;sketch=0;fontFamily=Comic Sans MS;fontSize=10;fontColor=#000000;strokeColor=#660000;strokeWidth=3;fillColor=none;" parent="Nw04OoW24CVMv9rph_wZ-1" vertex="1"><mxGeometry x="639" y="30" width="130" height="60" as="geometry"/></mxCell><mxCell id="TXg0T-Mokl3ugdCddI4s-0" value="Hub and Router&lt;br&gt;&amp;nbsp;Topology&amp;nbsp;" style="text;strokeColor=none;fillColor=none;html=1;fontSize=24;fontStyle=1;verticalAlign=middle;align=center;shadow=0;labelBackgroundColor=none;labelBorderColor=none;sketch=0;fontFamily=Verdana;fontColor=#FF3333;" parent="Nw04OoW24CVMv9rph_wZ-1" vertex="1"><mxGeometry x="925" y="27" width="100" height="40" as="geometry"/></mxCell><mxCell id="_9V8-kIj5HNZ1F25S9V7-0" value="&lt;font color=&quot;#3333ff&quot;&gt;IBM Cloud&lt;/font&gt;" style="text;strokeColor=none;fillColor=none;html=1;fontSize=24;fontStyle=1;verticalAlign=middle;align=center;shadow=0;labelBackgroundColor=none;labelBorderColor=none;sketch=0;fontFamily=Verdana;fontColor=#FF3333;rotation=-15;" parent="Nw04OoW24CVMv9rph_wZ-1" vertex="1"><mxGeometry x="39" y="37" width="100" height="40" as="geometry"/></mxCell></root></mxGraphModel></diagram><diagram id="uBWgry_wQBOWeAF_b4bD" name="Mirroring"><mxGraphModel dx="834" dy="1399" grid="0" gridSize="10" guides="1" tooltips="1" connect="1" arrows="1" fold="1" page="0" pageScale="1" pageWidth="1100" pageHeight="850" math="0" shadow="0"><root><mxCell id="Py5QK9TfoPZFPkcH8g4n-0"/><mxCell id="Py5QK9TfoPZFPkcH8g4n-1" parent="Py5QK9TfoPZFPkcH8g4n-0"/><mxCell id="1NiuJuyyIZT6h4eIeOsl-0" value="" style="group;strokeColor=#3399FF;strokeWidth=3;" parent="Py5QK9TfoPZFPkcH8g4n-1" vertex="1" connectable="0"><mxGeometry x="10" y="100" width="520" height="540" as="geometry"/></mxCell><mxCell id="1NiuJuyyIZT6h4eIeOsl-1" value="Region 1" style="shape=mxgraph.ibm.box;prType=region;fontStyle=0;verticalAlign=top;align=left;spacingLeft=32;spacingTop=4;fillColor=none;rounded=0;whiteSpace=wrap;html=1;strokeColor=#919191;strokeWidth=2;dashed=0;container=1;spacing=-4;collapsible=0;expand=0;recursiveResize=0;shadow=0;sketch=0;fontFamily=Comic Sans MS;fontSize=10;fontColor=#000000;" parent="1NiuJuyyIZT6h4eIeOsl-0" vertex="1"><mxGeometry width="520" height="540" as="geometry"/></mxCell><mxCell id="1NiuJuyyIZT6h4eIeOsl-5" value="VPC 1" style="shape=mxgraph.ibm.box;prType=vpc;fontStyle=0;verticalAlign=top;align=left;spacingLeft=32;spacingTop=4;rounded=0;whiteSpace=wrap;html=1;strokeWidth=3;dashed=1;container=1;spacing=-4;collapsible=0;expand=0;recursiveResize=0;sketch=0;fontFamily=Comic Sans MS;fontSize=10;fillColor=none;strokeColor=#FFB570;perimeterSpacing=1;shadow=0;" parent="1NiuJuyyIZT6h4eIeOsl-1" vertex="1"><mxGeometry x="9" y="35.76" width="190" height="224.24" as="geometry"/></mxCell><mxCell id="1NiuJuyyIZT6h4eIeOsl-19" value="VPC 2" style="shape=mxgraph.ibm.box;prType=vpc;fontStyle=0;verticalAlign=top;align=left;spacingLeft=32;spacingTop=4;rounded=0;whiteSpace=wrap;html=1;strokeWidth=3;dashed=1;container=1;spacing=-4;collapsible=0;expand=0;recursiveResize=0;sketch=0;fontFamily=Comic Sans MS;fontSize=10;fillColor=none;strokeColor=#FFB570;perimeterSpacing=1;shadow=0;" parent="1NiuJuyyIZT6h4eIeOsl-0" vertex="1"><mxGeometry x="314" y="305" width="190" height="223.31" as="geometry"/></mxCell><mxCell id="1NiuJuyyIZT6h4eIeOsl-20" value="B5&amp;nbsp;" style="aspect=fixed;perimeter=ellipsePerimeter;html=1;align=right;shadow=0;dashed=0;fontColor=#4277BB;labelBackgroundColor=#ffffff;fontSize=12;spacingTop=3;image;image=img/lib/ibm/vpc/Instance.svg;labelPosition=left;verticalLabelPosition=middle;verticalAlign=middle;" parent="1NiuJuyyIZT6h4eIeOsl-19" vertex="1"><mxGeometry x="26" y="29.99741721854309" width="40" height="40" as="geometry"/></mxCell><mxCell id="1NiuJuyyIZT6h4eIeOsl-23" value="B7&amp;nbsp;" style="aspect=fixed;perimeter=ellipsePerimeter;html=1;align=right;shadow=0;dashed=0;fontColor=#4277BB;labelBackgroundColor=#ffffff;fontSize=12;spacingTop=3;image;image=img/lib/ibm/vpc/Instance.svg;labelPosition=left;verticalLabelPosition=middle;verticalAlign=middle;" parent="1NiuJuyyIZT6h4eIeOsl-19" vertex="1"><mxGeometry x="142" y="59.99900662251656" width="40" height="40" as="geometry"/></mxCell><mxCell id="1NiuJuyyIZT6h4eIeOsl-21" value="B6&amp;nbsp;" style="aspect=fixed;perimeter=ellipsePerimeter;html=1;align=right;shadow=0;dashed=0;fontColor=#FF0000;labelBackgroundColor=#ffffff;fontSize=12;spacingTop=3;image;image=img/lib/ibm/vpc/Instance.svg;imageBackground=none;imageBorder=none;opacity=50;labelPosition=left;verticalLabelPosition=middle;verticalAlign=middle;" parent="1NiuJuyyIZT6h4eIeOsl-19" vertex="1"><mxGeometry x="26" y="130.00211920529802" width="40" height="40" as="geometry"/></mxCell><mxCell id="1NiuJuyyIZT6h4eIeOsl-22" style="edgeStyle=orthogonalEdgeStyle;rounded=0;orthogonalLoop=1;jettySize=auto;html=1;fontFamily=Comic Sans MS;fontSize=10;fontColor=#FF0000;strokeWidth=2;shadow=0;jumpStyle=none;endArrow=none;endFill=0;dashed=1;fillColor=#d5e8d4;strokeColor=#82b366;" parent="1NiuJuyyIZT6h4eIeOsl-19" source="1NiuJuyyIZT6h4eIeOsl-20" target="1NiuJuyyIZT6h4eIeOsl-21" edge="1"><mxGeometry relative="1" as="geometry"/></mxCell><mxCell id="1NiuJuyyIZT6h4eIeOsl-6" value="B1&amp;nbsp;" style="aspect=fixed;perimeter=ellipsePerimeter;html=1;align=right;shadow=0;dashed=0;fontColor=#4277BB;labelBackgroundColor=#ffffff;fontSize=12;spacingTop=3;image;image=img/lib/ibm/vpc/Instance.svg;labelPosition=left;verticalLabelPosition=middle;verticalAlign=middle;" parent="1NiuJuyyIZT6h4eIeOsl-0" vertex="1"><mxGeometry x="40" y="60.00317880794702" width="40" height="40" as="geometry"/></mxCell><mxCell id="1NiuJuyyIZT6h4eIeOsl-8" style="edgeStyle=orthogonalEdgeStyle;rounded=0;orthogonalLoop=1;jettySize=auto;html=1;fontFamily=Comic Sans MS;fontSize=10;fontColor=#FF0000;strokeWidth=2;shadow=0;jumpStyle=none;endArrow=none;endFill=0;dashed=1;fillColor=#d5e8d4;strokeColor=#82b366;" parent="1NiuJuyyIZT6h4eIeOsl-0" source="1NiuJuyyIZT6h4eIeOsl-6" target="1NiuJuyyIZT6h4eIeOsl-7" edge="1"><mxGeometry relative="1" as="geometry"/></mxCell><mxCell id="1NiuJuyyIZT6h4eIeOsl-30" style="edgeStyle=orthogonalEdgeStyle;rounded=0;jumpStyle=none;orthogonalLoop=1;jettySize=auto;html=1;entryX=0.5;entryY=0;entryDx=0;entryDy=0;shadow=0;fontFamily=Comic Sans MS;fontSize=10;fontColor=#FF0080;startArrow=none;startFill=0;endArrow=none;endFill=0;strokeWidth=2;dashed=1;fillColor=#d5e8d4;strokeColor=#82b366;" parent="1NiuJuyyIZT6h4eIeOsl-0" source="1NiuJuyyIZT6h4eIeOsl-23" target="1NiuJuyyIZT6h4eIeOsl-29" edge="1"><mxGeometry relative="1" as="geometry"/></mxCell><mxCell id="1NiuJuyyIZT6h4eIeOsl-15" value="B4&amp;nbsp;" style="aspect=fixed;perimeter=ellipsePerimeter;html=1;align=right;shadow=0;dashed=0;fontColor=#FF0000;labelBackgroundColor=#ffffff;fontSize=12;spacingTop=3;image;image=img/lib/ibm/vpc/Instance.svg;imageBackground=none;imageBorder=none;opacity=50;labelPosition=left;verticalLabelPosition=middle;verticalAlign=middle;" parent="1NiuJuyyIZT6h4eIeOsl-0" vertex="1"><mxGeometry x="153" y="210.0053642384106" width="40" height="40" as="geometry"/></mxCell><mxCell id="1NiuJuyyIZT6h4eIeOsl-16" style="edgeStyle=orthogonalEdgeStyle;rounded=0;jumpStyle=none;orthogonalLoop=1;jettySize=auto;html=1;entryX=0.5;entryY=0;entryDx=0;entryDy=0;shadow=0;fontFamily=Comic Sans MS;fontSize=10;fontColor=#FF0080;startArrow=none;startFill=0;endArrow=none;endFill=0;strokeWidth=2;dashed=1;fillColor=#d5e8d4;strokeColor=#82b366;" parent="1NiuJuyyIZT6h4eIeOsl-0" source="1NiuJuyyIZT6h4eIeOsl-9" target="1NiuJuyyIZT6h4eIeOsl-15" edge="1"><mxGeometry relative="1" as="geometry"/></mxCell><mxCell id="1NiuJuyyIZT6h4eIeOsl-29" value="B8&amp;nbsp;" style="aspect=fixed;perimeter=ellipsePerimeter;html=1;align=right;shadow=0;dashed=0;fontColor=#FF0000;labelBackgroundColor=#ffffff;fontSize=12;spacingTop=3;image;image=img/lib/ibm/vpc/Instance.svg;imageBackground=none;imageBorder=none;opacity=50;labelPosition=left;verticalLabelPosition=middle;verticalAlign=middle;" parent="1NiuJuyyIZT6h4eIeOsl-0" vertex="1"><mxGeometry x="456" y="470.00370860927154" width="40" height="40" as="geometry"/></mxCell><mxCell id="1NiuJuyyIZT6h4eIeOsl-7" value="B2&amp;nbsp;" style="aspect=fixed;perimeter=ellipsePerimeter;html=1;align=right;shadow=0;dashed=0;fontColor=#FF0000;labelBackgroundColor=#ffffff;fontSize=12;spacingTop=3;image;image=img/lib/ibm/vpc/Instance.svg;imageBackground=none;imageBorder=none;opacity=50;labelPosition=left;verticalLabelPosition=middle;verticalAlign=middle;" parent="1NiuJuyyIZT6h4eIeOsl-0" vertex="1"><mxGeometry x="40" y="170.00218543046356" width="40" height="40" as="geometry"/></mxCell><mxCell id="1NiuJuyyIZT6h4eIeOsl-9" value="B3&amp;nbsp;" style="aspect=fixed;perimeter=ellipsePerimeter;html=1;align=right;shadow=0;dashed=0;fontColor=#4277BB;labelBackgroundColor=#ffffff;fontSize=12;spacingTop=3;image;image=img/lib/ibm/vpc/Instance.svg;labelPosition=left;verticalLabelPosition=middle;verticalAlign=middle;" parent="1NiuJuyyIZT6h4eIeOsl-0" vertex="1"><mxGeometry x="153" y="100.00317880794701" width="40" height="40" as="geometry"/></mxCell><mxCell id="1NiuJuyyIZT6h4eIeOsl-32" value="" style="group;strokeColor=#3399FF;strokeWidth=3;" parent="Py5QK9TfoPZFPkcH8g4n-1" vertex="1" connectable="0"><mxGeometry x="701" y="100" width="520" height="540" as="geometry"/></mxCell><mxCell id="1NiuJuyyIZT6h4eIeOsl-33" value="Region 2" style="shape=mxgraph.ibm.box;prType=region;fontStyle=0;verticalAlign=top;align=left;spacingLeft=32;spacingTop=4;fillColor=none;rounded=0;whiteSpace=wrap;html=1;strokeColor=#919191;strokeWidth=2;dashed=0;container=1;spacing=-4;collapsible=0;expand=0;recursiveResize=0;shadow=0;sketch=0;fontFamily=Comic Sans MS;fontSize=10;fontColor=#000000;" parent="1NiuJuyyIZT6h4eIeOsl-32" vertex="1"><mxGeometry width="520" height="540" as="geometry"/></mxCell><mxCell id="1NiuJuyyIZT6h4eIeOsl-51" value="VPC 2" style="shape=mxgraph.ibm.box;prType=vpc;fontStyle=0;verticalAlign=top;align=left;spacingLeft=32;spacingTop=4;rounded=0;whiteSpace=wrap;html=1;strokeWidth=3;dashed=1;container=1;spacing=-4;collapsible=0;expand=0;recursiveResize=0;sketch=0;fontFamily=Comic Sans MS;fontSize=10;fillColor=none;strokeColor=#FFB570;perimeterSpacing=1;shadow=0;" parent="1NiuJuyyIZT6h4eIeOsl-33" vertex="1"><mxGeometry x="319" y="306" width="190" height="223.31" as="geometry"/></mxCell><mxCell id="1NiuJuyyIZT6h4eIeOsl-52" value="B5" style="aspect=fixed;perimeter=ellipsePerimeter;html=1;align=left;shadow=0;dashed=0;fontColor=#4277BB;labelBackgroundColor=#ffffff;fontSize=12;spacingTop=3;image;image=img/lib/ibm/vpc/Instance.svg;labelPosition=right;verticalLabelPosition=middle;verticalAlign=middle;" parent="1NiuJuyyIZT6h4eIeOsl-51" vertex="1"><mxGeometry x="11" y="28.995364238410613" width="40" height="40" as="geometry"/></mxCell><mxCell id="1NiuJuyyIZT6h4eIeOsl-37" value="VPC 1" style="shape=mxgraph.ibm.box;prType=vpc;fontStyle=0;verticalAlign=top;align=left;spacingLeft=32;spacingTop=4;rounded=0;whiteSpace=wrap;html=1;strokeWidth=3;dashed=1;container=1;spacing=-4;collapsible=0;expand=0;recursiveResize=0;sketch=0;fontFamily=Comic Sans MS;fontSize=10;fillColor=none;strokeColor=#FFB570;perimeterSpacing=1;shadow=0;" parent="1NiuJuyyIZT6h4eIeOsl-32" vertex="1"><mxGeometry x="9" y="35.76" width="190" height="224.24" as="geometry"/></mxCell><mxCell id="1NiuJuyyIZT6h4eIeOsl-41" value="B3&amp;nbsp;" style="aspect=fixed;perimeter=ellipsePerimeter;html=1;align=left;shadow=0;dashed=0;fontColor=#4277BB;labelBackgroundColor=#ffffff;fontSize=12;spacingTop=3;image;image=img/lib/ibm/vpc/Instance.svg;labelPosition=right;verticalLabelPosition=middle;verticalAlign=middle;" parent="1NiuJuyyIZT6h4eIeOsl-32" vertex="1"><mxGeometry x="130" y="100.00271523178809" width="40" height="40" as="geometry"/></mxCell><mxCell id="1NiuJuyyIZT6h4eIeOsl-48" style="edgeStyle=orthogonalEdgeStyle;rounded=0;jumpStyle=none;orthogonalLoop=1;jettySize=auto;html=1;entryX=0.5;entryY=0;entryDx=0;entryDy=0;shadow=0;fontFamily=Comic Sans MS;fontSize=10;fontColor=#FF0080;startArrow=none;startFill=0;endArrow=none;endFill=0;strokeWidth=2;dashed=1;fillColor=#d5e8d4;strokeColor=#82b366;" parent="1NiuJuyyIZT6h4eIeOsl-32" source="1NiuJuyyIZT6h4eIeOsl-41" target="1NiuJuyyIZT6h4eIeOsl-47" edge="1"><mxGeometry relative="1" as="geometry"/></mxCell><mxCell id="1NiuJuyyIZT6h4eIeOsl-39" value="B2" style="aspect=fixed;perimeter=ellipsePerimeter;html=1;align=left;shadow=0;dashed=0;fontColor=#FF0000;labelBackgroundColor=#ffffff;fontSize=12;spacingTop=3;image;image=img/lib/ibm/vpc/Instance.svg;imageBackground=none;imageBorder=none;opacity=50;labelPosition=right;verticalLabelPosition=middle;verticalAlign=middle;" parent="1NiuJuyyIZT6h4eIeOsl-32" vertex="1"><mxGeometry x="19" y="170.00172185430466" width="40" height="40" as="geometry"/></mxCell><mxCell id="1NiuJuyyIZT6h4eIeOsl-40" style="edgeStyle=orthogonalEdgeStyle;rounded=0;orthogonalLoop=1;jettySize=auto;html=1;fontFamily=Comic Sans MS;fontSize=10;fontColor=#FF0000;strokeWidth=2;shadow=0;jumpStyle=none;endArrow=none;endFill=0;dashed=1;fillColor=#d5e8d4;strokeColor=#82b366;" parent="1NiuJuyyIZT6h4eIeOsl-32" source="1NiuJuyyIZT6h4eIeOsl-38" target="1NiuJuyyIZT6h4eIeOsl-39" edge="1"><mxGeometry relative="1" as="geometry"/></mxCell><mxCell id="1NiuJuyyIZT6h4eIeOsl-47" value="B4&amp;nbsp;" style="aspect=fixed;perimeter=ellipsePerimeter;html=1;align=left;shadow=0;dashed=0;fontColor=#FF0000;labelBackgroundColor=#ffffff;fontSize=12;spacingTop=3;image;image=img/lib/ibm/vpc/Instance.svg;imageBackground=none;imageBorder=none;opacity=50;labelPosition=right;verticalLabelPosition=middle;verticalAlign=middle;" parent="1NiuJuyyIZT6h4eIeOsl-32" vertex="1"><mxGeometry x="130" y="210.0033112582782" width="40" height="40" as="geometry"/></mxCell><mxCell id="1NiuJuyyIZT6h4eIeOsl-38" value="B1" style="aspect=fixed;perimeter=ellipsePerimeter;html=1;align=left;shadow=0;dashed=0;fontColor=#4277BB;labelBackgroundColor=#ffffff;fontSize=12;spacingTop=3;image;image=img/lib/ibm/vpc/Instance.svg;labelPosition=right;verticalLabelPosition=middle;verticalAlign=middle;" parent="1NiuJuyyIZT6h4eIeOsl-32" vertex="1"><mxGeometry x="19" y="60.001125827814576" width="40" height="40" as="geometry"/></mxCell><mxCell id="1NiuJuyyIZT6h4eIeOsl-53" value="B6" style="aspect=fixed;perimeter=ellipsePerimeter;html=1;align=left;shadow=0;dashed=0;fontColor=#FF0000;labelBackgroundColor=#ffffff;fontSize=12;spacingTop=3;image;image=img/lib/ibm/vpc/Instance.svg;imageBackground=none;imageBorder=none;opacity=50;labelPosition=right;verticalLabelPosition=middle;verticalAlign=middle;" parent="1NiuJuyyIZT6h4eIeOsl-32" vertex="1"><mxGeometry x="330" y="435.00370860927154" width="40" height="40" as="geometry"/></mxCell><mxCell id="1NiuJuyyIZT6h4eIeOsl-54" style="edgeStyle=orthogonalEdgeStyle;rounded=0;orthogonalLoop=1;jettySize=auto;html=1;fontFamily=Comic Sans MS;fontSize=10;fontColor=#FF0000;strokeWidth=2;shadow=0;jumpStyle=none;endArrow=none;endFill=0;dashed=1;fillColor=#d5e8d4;strokeColor=#82b366;" parent="1NiuJuyyIZT6h4eIeOsl-32" source="1NiuJuyyIZT6h4eIeOsl-52" target="1NiuJuyyIZT6h4eIeOsl-53" edge="1"><mxGeometry relative="1" as="geometry"/></mxCell><mxCell id="1NiuJuyyIZT6h4eIeOsl-61" value="B8&amp;nbsp;" style="aspect=fixed;perimeter=ellipsePerimeter;html=1;align=left;shadow=0;dashed=0;fontColor=#FF0000;labelBackgroundColor=#ffffff;fontSize=12;spacingTop=3;image;image=img/lib/ibm/vpc/Instance.svg;imageBackground=none;imageBorder=none;opacity=50;labelPosition=right;verticalLabelPosition=middle;verticalAlign=middle;" parent="1NiuJuyyIZT6h4eIeOsl-32" vertex="1"><mxGeometry x="440" y="470.0037086092716" width="40" height="40" as="geometry"/></mxCell><mxCell id="1NiuJuyyIZT6h4eIeOsl-62" style="edgeStyle=orthogonalEdgeStyle;rounded=0;jumpStyle=none;orthogonalLoop=1;jettySize=auto;html=1;entryX=0.5;entryY=0;entryDx=0;entryDy=0;shadow=0;fontFamily=Comic Sans MS;fontSize=10;fontColor=#FF0080;startArrow=none;startFill=0;endArrow=none;endFill=0;strokeWidth=2;dashed=1;fillColor=#d5e8d4;strokeColor=#82b366;" parent="1NiuJuyyIZT6h4eIeOsl-32" source="1NiuJuyyIZT6h4eIeOsl-55" target="1NiuJuyyIZT6h4eIeOsl-61" edge="1"><mxGeometry relative="1" as="geometry"/></mxCell><mxCell id="1NiuJuyyIZT6h4eIeOsl-55" value="B7&amp;nbsp;" style="aspect=fixed;perimeter=ellipsePerimeter;html=1;align=left;shadow=0;dashed=0;fontColor=#4277BB;labelBackgroundColor=#ffffff;fontSize=12;spacingTop=3;image;image=img/lib/ibm/vpc/Instance.svg;labelPosition=right;verticalLabelPosition=middle;verticalAlign=middle;" parent="1NiuJuyyIZT6h4eIeOsl-32" vertex="1"><mxGeometry x="440" y="364.99695364238414" width="40" height="40" as="geometry"/></mxCell><mxCell id="1NiuJuyyIZT6h4eIeOsl-67" value="LEGEND" style="text;html=1;align=left;verticalAlign=middle;fontColor=#4277BB;shadow=0;dashed=0;strokeColor=none;fillColor=none;labelBackgroundColor=none;fontStyle=1;fontSize=14;spacingLeft=0;" parent="Py5QK9TfoPZFPkcH8g4n-1" vertex="1"><mxGeometry x="50" y="689" width="150" height="20" as="geometry"/></mxCell><mxCell id="1NiuJuyyIZT6h4eIeOsl-68" value="AMQ Broker - Live" style="aspect=fixed;perimeter=ellipsePerimeter;html=1;align=left;shadow=0;dashed=0;fontColor=#4277BB;labelBackgroundColor=#ffffff;fontSize=12;spacingTop=3;image;image=img/lib/ibm/vpc/Instance.svg;fontFamily=Comic Sans MS;labelPosition=right;verticalLabelPosition=middle;verticalAlign=middle;" parent="Py5QK9TfoPZFPkcH8g4n-1" vertex="1"><mxGeometry x="50" y="719" width="30" height="30" as="geometry"/></mxCell><mxCell id="1NiuJuyyIZT6h4eIeOsl-69" value="AMQ Broker - Backup" style="aspect=fixed;perimeter=ellipsePerimeter;html=1;align=left;shadow=0;dashed=0;fontColor=#FF0000;labelBackgroundColor=#ffffff;fontSize=12;spacingTop=3;image;image=img/lib/ibm/vpc/Instance.svg;imageBackground=none;imageBorder=none;opacity=50;labelPosition=right;verticalLabelPosition=middle;verticalAlign=middle;" parent="Py5QK9TfoPZFPkcH8g4n-1" vertex="1"><mxGeometry x="50" y="759" width="30" height="30" as="geometry"/></mxCell><mxCell id="1NiuJuyyIZT6h4eIeOsl-80" value="&lt;font&gt;Mirroring&lt;/font&gt;" style="text;strokeColor=none;fillColor=none;html=1;fontSize=24;fontStyle=1;verticalAlign=middle;align=center;shadow=0;labelBackgroundColor=none;labelBorderColor=none;sketch=0;fontFamily=Verdana;fontColor=#FF3333;" parent="Py5QK9TfoPZFPkcH8g4n-1" vertex="1"><mxGeometry x="566" y="18" width="100" height="40" as="geometry"/></mxCell><mxCell id="KymjSkgYA4ii0nvOnK-v-0" value="" style="html=1;labelBackgroundColor=#ffffff;endArrow=classicThin;endFill=1;jettySize=auto;orthogonalLoop=1;strokeWidth=3;dashed=1;fontSize=16;rounded=0;entryX=0;entryY=0.5;entryDx=0;entryDy=0;startArrow=classicThin;startFill=1;fontFamily=Comic Sans MS;fontColor=#FFB570;strokeColor=#000000;sketch=0;jumpSize=7;" parent="Py5QK9TfoPZFPkcH8g4n-1" source="1NiuJuyyIZT6h4eIeOsl-7" target="1NiuJuyyIZT6h4eIeOsl-39" edge="1"><mxGeometry width="60" height="60" relative="1" as="geometry"><mxPoint x="540" y="740" as="sourcePoint"/><mxPoint x="600" y="680" as="targetPoint"/></mxGeometry></mxCell><mxCell id="KymjSkgYA4ii0nvOnK-v-4" value="" style="html=1;labelBackgroundColor=#ffffff;endArrow=classicThin;endFill=1;jettySize=auto;orthogonalLoop=1;strokeWidth=3;dashed=1;fontSize=16;rounded=0;startArrow=classicThin;startFill=1;fontFamily=Comic Sans MS;fontColor=#FFB570;strokeColor=#000000;sketch=0;jumpSize=7;" parent="Py5QK9TfoPZFPkcH8g4n-1" source="1NiuJuyyIZT6h4eIeOsl-6" target="1NiuJuyyIZT6h4eIeOsl-38" edge="1"><mxGeometry width="60" height="60" relative="1" as="geometry"><mxPoint x="130" y="468" as="sourcePoint"/><mxPoint x="699" y="468" as="targetPoint"/></mxGeometry></mxCell><mxCell id="KymjSkgYA4ii0nvOnK-v-6" value="" style="html=1;labelBackgroundColor=#ffffff;endArrow=classicThin;endFill=1;jettySize=auto;orthogonalLoop=1;strokeWidth=3;dashed=1;fontSize=16;rounded=0;startArrow=classicThin;startFill=1;fontFamily=Comic Sans MS;fontColor=#FFB570;strokeColor=#000000;sketch=0;jumpSize=7;" parent="Py5QK9TfoPZFPkcH8g4n-1" source="1NiuJuyyIZT6h4eIeOsl-9" target="1NiuJuyyIZT6h4eIeOsl-41" edge="1"><mxGeometry width="60" height="60" relative="1" as="geometry"><mxPoint x="130" y="290" as="sourcePoint"/><mxPoint x="699" y="290" as="targetPoint"/></mxGeometry></mxCell><mxCell id="6CXmd0_7jsODygsXgrtM-4" value="Mirror" style="html=1;labelBackgroundColor=#ffffff;endArrow=classicThin;endFill=1;jettySize=auto;orthogonalLoop=1;strokeWidth=3;dashed=1;fontSize=14;rounded=0;startArrow=classicThin;startFill=1;fontFamily=Comic Sans MS;fontColor=#CC0000;strokeColor=#000000;sketch=0;jumpSize=7;" parent="Py5QK9TfoPZFPkcH8g4n-1" edge="1"><mxGeometry x="1" y="30" width="60" height="60" relative="1" as="geometry"><mxPoint x="320" y="733.5" as="sourcePoint"/><mxPoint x="390" y="734" as="targetPoint"/><mxPoint x="30" y="30" as="offset"/></mxGeometry></mxCell><mxCell id="6CXmd0_7jsODygsXgrtM-6" value="" style="html=1;labelBackgroundColor=#ffffff;endArrow=classicThin;endFill=1;jettySize=auto;orthogonalLoop=1;strokeWidth=3;dashed=1;fontSize=16;rounded=0;startArrow=classicThin;startFill=1;fontFamily=Comic Sans MS;fontColor=#FFB570;strokeColor=#000000;sketch=0;jumpSize=7;exitX=0.675;exitY=0.5;exitDx=0;exitDy=0;exitPerimeter=0;" parent="Py5QK9TfoPZFPkcH8g4n-1" source="1NiuJuyyIZT6h4eIeOsl-15" target="1NiuJuyyIZT6h4eIeOsl-47" edge="1"><mxGeometry width="60" height="60" relative="1" as="geometry"><mxPoint x="240" y="480" as="sourcePoint"/><mxPoint x="807" y="480" as="targetPoint"/></mxGeometry></mxCell><mxCell id="6CXmd0_7jsODygsXgrtM-8" value="" style="html=1;labelBackgroundColor=#ffffff;endArrow=classicThin;endFill=1;jettySize=auto;orthogonalLoop=1;strokeWidth=3;dashed=1;fontSize=16;rounded=0;startArrow=classicThin;startFill=1;fontFamily=Comic Sans MS;fontColor=#FFB570;strokeColor=#000000;sketch=0;jumpSize=7;" parent="Py5QK9TfoPZFPkcH8g4n-1" source="1NiuJuyyIZT6h4eIeOsl-20" target="1NiuJuyyIZT6h4eIeOsl-52" edge="1"><mxGeometry width="60" height="60" relative="1" as="geometry"><mxPoint x="389" y="369.28536423841075" as="sourcePoint"/><mxPoint x="969.0000277777112" y="370.7099779712408" as="targetPoint"/></mxGeometry></mxCell><mxCell id="6CXmd0_7jsODygsXgrtM-9" value="" style="html=1;labelBackgroundColor=#ffffff;endArrow=classicThin;endFill=1;jettySize=auto;orthogonalLoop=1;strokeWidth=3;dashed=1;fontSize=16;rounded=0;startArrow=classicThin;startFill=1;fontFamily=Comic Sans MS;fontColor=#FFB570;strokeColor=#000000;sketch=0;jumpSize=7;entryX=0;entryY=0.5;entryDx=0;entryDy=0;" parent="Py5QK9TfoPZFPkcH8g4n-1" source="1NiuJuyyIZT6h4eIeOsl-23" target="1NiuJuyyIZT6h4eIeOsl-55" edge="1"><mxGeometry width="60" height="60" relative="1" as="geometry"><mxPoint x="381.9997643551951" y="429.900330983809" as="sourcePoint"/><mxPoint x="980.0002211026494" y="426.7794070858904" as="targetPoint"/></mxGeometry></mxCell><mxCell id="6CXmd0_7jsODygsXgrtM-10" value="" style="html=1;labelBackgroundColor=#ffffff;endArrow=classicThin;endFill=1;jettySize=auto;orthogonalLoop=1;strokeWidth=3;dashed=1;fontSize=16;rounded=0;startArrow=classicThin;startFill=1;fontFamily=Comic Sans MS;fontColor=#FFB570;strokeColor=#000000;sketch=0;jumpSize=7;" parent="Py5QK9TfoPZFPkcH8g4n-1" source="1NiuJuyyIZT6h4eIeOsl-21" target="1NiuJuyyIZT6h4eIeOsl-53" edge="1"><mxGeometry width="60" height="60" relative="1" as="geometry"><mxPoint x="381.9997643551951" y="429.900330983809" as="sourcePoint"/><mxPoint x="980.0002211026494" y="426.7794070858904" as="targetPoint"/></mxGeometry></mxCell><mxCell id="6CXmd0_7jsODygsXgrtM-11" value="" style="html=1;labelBackgroundColor=#ffffff;endArrow=classicThin;endFill=1;jettySize=auto;orthogonalLoop=1;strokeWidth=3;dashed=1;fontSize=16;rounded=0;startArrow=classicThin;startFill=1;fontFamily=Comic Sans MS;fontColor=#FFB570;strokeColor=#000000;sketch=0;jumpSize=7;exitX=1;exitY=0.5;exitDx=0;exitDy=0;" parent="Py5QK9TfoPZFPkcH8g4n-1" source="1NiuJuyyIZT6h4eIeOsl-29" target="1NiuJuyyIZT6h4eIeOsl-61" edge="1"><mxGeometry width="60" height="60" relative="1" as="geometry"><mxPoint x="382" y="530.002119205298" as="sourcePoint"/><mxPoint x="980" y="530.0037086092716" as="targetPoint"/></mxGeometry></mxCell><mxCell id="k-V7g5NcXpZRDhf7PCaP-1" style="edgeStyle=none;rounded=0;sketch=0;jumpSize=7;orthogonalLoop=1;jettySize=auto;html=1;entryX=0;entryY=0.515;entryDx=0;entryDy=0;entryPerimeter=0;fontFamily=Verdana;fontSize=14;fontColor=#CC0000;startArrow=classicThin;startFill=1;endArrow=classicThin;endFill=1;strokeColor=#000000;strokeWidth=3;" parent="Py5QK9TfoPZFPkcH8g4n-1" source="AtWVA0FYUxkoknmbG_EP-0" target="1NiuJuyyIZT6h4eIeOsl-33" edge="1"><mxGeometry relative="1" as="geometry"/></mxCell><mxCell id="k-V7g5NcXpZRDhf7PCaP-2" style="edgeStyle=none;rounded=0;sketch=0;jumpSize=7;orthogonalLoop=1;jettySize=auto;html=1;fontFamily=Verdana;fontSize=14;fontColor=#CC0000;startArrow=classicThin;startFill=1;endArrow=classicThin;endFill=1;strokeColor=#000000;strokeWidth=3;" parent="Py5QK9TfoPZFPkcH8g4n-1" source="AtWVA0FYUxkoknmbG_EP-0" edge="1"><mxGeometry relative="1" as="geometry"><mxPoint x="530" y="379" as="targetPoint"/></mxGeometry></mxCell><mxCell id="AtWVA0FYUxkoknmbG_EP-0" value="&lt;font color=&quot;#9933ff&quot;&gt;GTG&lt;/font&gt;" style="aspect=fixed;perimeter=ellipsePerimeter;html=1;align=center;shadow=0;dashed=0;fontColor=#4277BB;labelBackgroundColor=#ffffff;fontSize=12;spacingTop=3;image;image=img/lib/ibm/vpc/TransitGateway.svg;fontFamily=Comic Sans MS;strokeColor=#FFB570;" parent="Py5QK9TfoPZFPkcH8g4n-1" vertex="1"><mxGeometry x="589" y="354" width="50" height="50" as="geometry"/></mxCell><mxCell id="k-V7g5NcXpZRDhf7PCaP-0" value="&lt;font color=&quot;#9933ff&quot;&gt;GTG - Global Transit Gateway&lt;/font&gt;" style="aspect=fixed;perimeter=ellipsePerimeter;html=1;align=left;shadow=0;dashed=0;fontColor=#4277BB;labelBackgroundColor=#ffffff;fontSize=12;spacingTop=3;image;image=img/lib/ibm/vpc/TransitGateway.svg;fontFamily=Comic Sans MS;strokeColor=#FFB570;labelPosition=right;verticalLabelPosition=middle;verticalAlign=middle;" parent="Py5QK9TfoPZFPkcH8g4n-1" vertex="1"><mxGeometry x="320" y="760.5" width="27" height="27" as="geometry"/></mxCell><mxCell id="kP3a0U7DH8J4BnL_r2d5-0" value="&lt;font color=&quot;#3333ff&quot;&gt;IBM Cloud&lt;/font&gt;" style="text;strokeColor=none;fillColor=none;html=1;fontSize=24;fontStyle=1;verticalAlign=middle;align=center;shadow=0;labelBackgroundColor=none;labelBorderColor=none;sketch=0;fontFamily=Verdana;fontColor=#FF3333;rotation=-15;" parent="Py5QK9TfoPZFPkcH8g4n-1" vertex="1"><mxGeometry x="39" y="37" width="100" height="40" as="geometry"/></mxCell></root></mxGraphModel></diagram></mxfile>